<!--
  peek Horizontal Logo (with Text)
  
  Full logo with icon and text, perfect for navigation bars and headers.
  
  Generated by: GitHub Copilot
  Date: November 3, 2025
  Version: 1.1.2
-->
<svg width="400" height="100" viewBox="0 0 400 100" fill="none" xmlns="http://www.w3.org/2000/svg">
  <!-- Definitions -->
  <defs>
    <!-- Main Gradient -->
    <linearGradient id="iconGradient" x1="0%" y1="0%" x2="100%" y2="100%">
      <stop offset="0%" stop-color="#7c3aed"/>
      <stop offset="100%" stop-color="#14b8a6"/>
    </linearGradient>
    
    <!-- Text Gradient -->
    <linearGradient id="textGradient" x1="0%" y1="50%" x2="100%" y2="50%">
      <stop offset="0%" stop-color="#0f172a"/>
      <stop offset="50%" stop-color="#7c3aed"/>
      <stop offset="100%" stop-color="#14b8a6"/>
    </linearGradient>
  </defs>
  
  <!-- Icon -->
  <g transform="translate(10, 10)">
    <!-- Rounded Square Background -->
    <rect x="0" y="0" width="80" height="80" rx="18" 
          fill="url(#iconGradient)" opacity="0.95"/>
    
    <!-- Peek Lines -->
    <rect x="15" y="20" width="50" height="5" rx="2.5" fill="white" opacity="0.9"/>
    <rect x="15" y="37.5" width="50" height="5" rx="2.5" fill="white" opacity="0.9"/>
    <rect x="15" y="55" width="30" height="5" rx="2.5" fill="white" opacity="0.9"/>
    
    <!-- Eye Symbol -->
    <circle cx="58" cy="57.5" r="4" fill="white" opacity="0.9"/>
    <circle cx="58" cy="57.5" r="2" fill="#7c3aed"/>
  </g>
  
  <!-- Text: "peek" - Aligned with icon center -->
  <g transform="translate(110, 20)">
    <!-- p -->
    <path d="M0,0 L0,30 M0,0 Q10,-2 15,5 Q17,10 15,15 Q10,22 0,20" 
          stroke="#0f172a" stroke-width="6" stroke-linecap="round" 
          stroke-linejoin="round" fill="none"/>
    
    <!-- e -->
    <path d="M30,10 L50,10 M40,10 Q30,10 30,15 Q30,20 40,20 Q50,20 50,15" 
          stroke="#0f172a" stroke-width="6" stroke-linecap="round" 
          stroke-linejoin="round" fill="none"/>
    
    <!-- e -->
    <path d="M60,10 L80,10 M70,10 Q60,10 60,15 Q60,20 70,20 Q80,20 80,15" 
          stroke="#0f172a" stroke-width="6" stroke-linecap="round" 
          stroke-linejoin="round" fill="none"/>
    
    <!-- k -->
    <path d="M90,0 L90,30 M90,10 L105,0 M90,15 L105,25" 
          stroke="#0f172a" stroke-width="6" stroke-linecap="round" 
          stroke-linejoin="round" fill="none"/>
  </g>
  
  <!-- Subtitle/Tagline -->
  <text x="110" y="75" font-family="Inter, sans-serif" font-size="11" 
        font-weight="500" fill="#64748b" letter-spacing="0.5">
    HTTP INSPECTOR
  </text>
</svg>
